HIERARCHY
ROOT Hips
{
	OFFSET 0.000000 0.000000 0.000000
	CHANNELS 6 Xposition Yposition Zposition Xrotation Yrotation Zrotation
	JOINT LeftUpLeg_virtual
	{
		OFFSET 0.000000 0.000000 0.000000
		CHANNELS 3 Xrotation Yrotation Zrotation
		JOINT LeftUpLeg
		{
			OFFSET 15.427100 -6.655098 0.678600
			CHANNELS 3 Xrotation Yrotation Zrotation
			JOINT LeftLeg
			{
				OFFSET 4.081073 -39.591068 13.024000
				CHANNELS 3 Xrotation Yrotation Zrotation
				JOINT LeftFoot
				{
					OFFSET -4.081074 -37.707932 -15.979700
					CHANNELS 3 Xrotation Yrotation Zrotation
					JOINT LeftToeBase
					{
						OFFSET 5.346399 -15.068900 20.645000
						CHANNELS 3 Xrotation Yrotation Zrotation
						JOINT LeftToe_End
						{
							OFFSET 2.754700 0.931300 11.300900
							CHANNELS 3 Xrotation Yrotation Zrotation
							End Site
							{
								OFFSET 0 0 0
							}
						}
					}
				}
			}
		}
	}
	JOINT RightUpLeg_virtual
	{
		OFFSET 0.000000 0.000000 0.000000
		CHANNELS 3 Xrotation Yrotation Zrotation
		JOINT RightUpLeg
		{
			OFFSET -15.569500 -6.655098 0.678600
			CHANNELS 3 Xrotation Yrotation Zrotation
			JOINT RightLeg
			{
				OFFSET -4.081825 -39.591045 13.023800
				CHANNELS 3 Xrotation Yrotation Zrotation
				JOINT RightFoot
				{
					OFFSET 4.081824 -37.707954 -15.979600
					CHANNELS 3 Xrotation Yrotation Zrotation
					JOINT RightToeBase
					{
						OFFSET -5.346400 -15.068900 20.645000
						CHANNELS 3 Xrotation Yrotation Zrotation
						JOINT RightToe_End
						{
							OFFSET -2.754700 0.931300 11.300900
							CHANNELS 3 Xrotation Yrotation Zrotation
							End Site
							{
								OFFSET 0 0 0
							}
						}
					}
				}
			}
		}
	}
	JOINT Spine_virtual
	{
		OFFSET 0.000000 0.000000 0.000000
		CHANNELS 3 Xrotation Yrotation Zrotation
		JOINT Spine
		{
			OFFSET -0.279200 12.230698 -2.892100
			CHANNELS 3 Xrotation Yrotation Zrotation
			JOINT Spine1
			{
				OFFSET -0.232667 10.192268 -1.242267
				CHANNELS 3 Xrotation Yrotation Zrotation
				JOINT Spine1_split
				{
					OFFSET -0.232667 10.192268 -1.242267
					CHANNELS 3 Xrotation Yrotation Zrotation
					JOINT Spine2
					{
						OFFSET -0.232667 10.192268 -1.242267
						CHANNELS 3 Xrotation Yrotation Zrotation
						JOINT Neck_virtual
						{
							OFFSET 0.000000 0.000000 0.000000
							CHANNELS 3 Xrotation Yrotation Zrotation
							JOINT Neck
							{
								OFFSET -0.418800 17.814194 8.416900
								CHANNELS 3 Xrotation Yrotation Zrotation
								JOINT Head
								{
									OFFSET 0.000000 7.031097 3.806800
									CHANNELS 3 Xrotation Yrotation Zrotation
									JOINT HeadTop_End
									{
										OFFSET 0.000000 24.646606 12.978600
										CHANNELS 3 Xrotation Yrotation Zrotation
										End Site
										{
											OFFSET 0 0 0
										}
									}
								}
							}
						}
						JOINT LeftShoulder_virtual
						{
							OFFSET 0.000000 0.000000 0.000000
							CHANNELS 3 Xrotation Yrotation Zrotation
							JOINT LeftShoulder
							{
								OFFSET 8.476499 7.247704 -3.868750
								CHANNELS 3 Xrotation Yrotation Zrotation
								JOINT LeftShoulder_split
								{
									OFFSET 8.476499 7.247704 -3.868750
									CHANNELS 3 Xrotation Yrotation Zrotation
									JOINT LeftArm
									{
										OFFSET 9.308998 -2.777710 0.208600
										CHANNELS 3 Xrotation Yrotation Zrotation
										JOINT LeftForeArm
										{
											OFFSET 29.972298 0.000000 0.000000
											CHANNELS 3 Xrotation Yrotation Zrotation
											JOINT LeftHand
											{
												OFFSET 26.026505 0.000000 0.000000
												CHANNELS 3 Xrotation Yrotation Zrotation
												End Site
												{
													OFFSET 0 0 0
												}
											}
										}
									}
								}
							}
						}
						JOINT RightShoulder_virtual
						{
							OFFSET 0.000000 0.000000 0.000000
							CHANNELS 3 Xrotation Yrotation Zrotation
							JOINT RightShoulder
							{
								OFFSET -7.570500 7.247704 -3.868750
								CHANNELS 3 Xrotation Yrotation Zrotation
								JOINT RightShoulder_split
								{
									OFFSET -7.570500 7.247704 -3.868750
									CHANNELS 3 Xrotation Yrotation Zrotation
									JOINT RightArm
									{
										OFFSET -9.308998 -2.777710 0.208500
										CHANNELS 3 Xrotation Yrotation Zrotation
										JOINT RightForeArm
										{
											OFFSET -29.972300 0.000000 0.000000
											CHANNELS 3 Xrotation Yrotation Zrotation
											JOINT RightHand
											{
												OFFSET -26.026505 0.000000 0.000000
												CHANNELS 3 Xrotation Yrotation Zrotation
												End Site
												{
													OFFSET 0 0 0
												}
											}
										}
									}
								}
							}
						}
					}
				}
			}
		}
	}
}
MOTION
Frames: 4
Frame Time: 0.03333333
4.653803 69.707542 0.813286 0.000000 0.000000 0.000000 25.107815 -16.080448 9.590784 -68.203175 -2.206600 25.456395 52.847137 -11.573391 3.459083 3.651292 6.551310 -20.627468 1.913890 -3.317663 -0.149339 0.000000 0.000000 0.000000 24.452388 -16.116391 9.371896 -57.634523 -3.068531 -27.726757 59.842115 13.596725 -8.521672 -12.368407 -15.293524 31.561338 1.368439 5.942682 -10.819187 0.000000 0.000000 0.000000 24.420542 -8.582102 7.028603 13.880509 2.217264 0.001684 8.801257 -2.769452 0.577724 0.077898 -0.187466 0.043457 0.000000 0.000000 0.000000 9.113882 -0.351763 1.093534 -11.583630 1.210480 -15.520787 -37.242447 9.199759 -5.245216 0.000000 0.000000 0.000000 7.553790 -2.137480 -0.759385 4.279983 -7.359248 3.914977 0.173503 -4.058308 1.388480 -51.397696 6.235586 -57.098015 -38.477819 -69.580872 -32.870729 0.000000 0.000000 0.000000 10.664306 -0.594241 1.427719 1.744858 10.728843 -10.181603 6.654098 2.823973 4.941167 -41.635669 -0.327730 55.874318 -50.485992 69.243242 47.508965 0.000000 0.000000 0.000000 
4.593870 69.670578 0.931061 0.000000 0.000000 0.000000 24.565609 -16.208905 9.520950 -67.621707 -1.757743 24.953731 52.795498 -11.447157 3.783573 2.807306 6.954323 -20.304356 2.524093 -3.116938 -0.619175 0.000000 0.000000 0.000000 23.954257 -16.404953 9.359494 -57.477572 -3.465006 -28.019683 59.995057 13.500782 -7.953338 -13.165996 -15.339994 30.283430 2.539193 5.768528 -11.282458 0.000000 0.000000 0.000000 23.691691 -8.443873 7.026853 14.107547 1.931427 -0.272250 8.542855 -2.766707 0.699468 0.050461 -0.165912 0.036837 0.000000 0.000000 0.000000 9.236425 -0.364477 1.191514 -11.674241 0.564338 -15.834463 -38.205059 8.519105 -3.073804 0.000000 0.000000 0.000000 7.606512 -2.130217 -0.598612 4.587342 -7.501772 3.219428 -0.205462 -4.268449 1.560288 -49.935708 7.127686 -58.474513 -38.517865 -70.484643 -32.685426 0.000000 0.000000 0.000000 10.664292 -0.650052 1.506727 1.459328 10.353255 -9.598100 7.689069 3.663673 4.491124 -39.117023 0.052813 56.485982 -54.475594 70.768451 51.900323 0.000000 0.000000 0.000000 
4.485435 69.376961 0.981804 0.000000 0.000000 0.000000 24.184943 -16.334362 9.524094 -67.255937 -1.554936 24.610669 53.142768 -11.513915 3.998509 1.980849 7.447146 -20.213974 3.040805 -2.925820 -0.928668 0.000000 0.000000 0.000000 23.617790 -16.497847 9.395841 -57.565695 -3.603266 -28.191853 60.482561 13.352887 -7.478041 -14.075260 -15.411217 29.021419 3.612563 5.523118 -11.592253 0.000000 0.000000 0.000000 23.195061 -8.445810 7.122639 14.372004 1.654856 -0.534349 8.345456 -2.803721 0.851789 0.051988 -0.121481 0.011664 0.000000 0.000000 0.000000 9.408770 -0.409787 1.278070 -11.838527 -0.003640 -16.186208 -39.522610 8.224203 -0.931841 0.000000 0.000000 0.000000 7.712583 -2.168832 -0.411826 4.916621 -7.749759 2.910814 -0.638717 -4.597483 1.545684 -48.242688 8.081890 -59.666641 -38.676896 -72.086698 -32.743934 0.000000 0.000000 0.000000 10.686034 -0.773464 1.585027 1.298010 9.945226 -9.327988 8.928674 4.223012 4.007394 -36.963105 0.192839 56.968374 -59.658909 72.405456 57.509284 0.000000 0.000000 0.000000 
4.350260 68.888054 1.021740 0.000000 0.000000 0.000000 23.962023 -16.503506 9.587661 -67.021484 -1.503506 24.430437 53.735660 -11.729858 4.137963 1.116263 7.979746 -20.252027 3.368485 -2.768578 -0.974162 0.000000 0.000000 0.000000 23.485716 -16.491724 9.483301 -57.873026 -3.516316 -28.245117 61.165519 13.214318 -7.083303 -14.867372 -15.429561 27.994881 4.287118 5.273143 -11.814498 0.000000 0.000000 0.000000 22.947214 -8.593114 7.263704 14.582276 1.359748 -0.751960 8.195711 -2.860735 1.021542 0.061841 -0.053739 -0.001236 0.000000 0.000000 0.000000 9.601476 -0.463357 1.350464 -12.038905 -0.481336 -16.560494 -41.044799 8.220610 1.101022 0.000000 0.000000 0.000000 7.836335 -2.229988 -0.220996 5.248716 -8.124490 2.717446 -1.007582 -4.833297 1.367903 -46.406351 9.094090 -60.516869 -38.740731 -73.993905 -32.777265 0.000000 0.000000 0.000000 10.695186 -0.915366 1.656295 1.245379 9.571685 -9.310555 10.339554 4.593499 3.635234 -35.119347 -0.018025 57.279056 -65.827785 74.017462 64.120901 0.000000 0.000000 0.000000 
